HIERARCHY
ROOT mixamorig:Hips
{
	OFFSET 0.000000 104.274902 0.000000
	CHANNELS 6 Xposition Yposition Zposition Xrotation Yrotation Zrotation
	JOINT mixamorig:Spine
	{
		OFFSET 0.000000 10.181549 0.131524
		CHANNELS 6 Xposition Yposition Zposition Xrotation Yrotation Zrotation
		JOINT mixamorig:Spine1
		{
			OFFSET 0.000000 9.893990 -1.470706
			CHANNELS 3 Xrotation Yrotation Zrotation
			JOINT mixamorig:Spine2
			{
				OFFSET 0.000000 9.220787 -1.370637
				CHANNELS 3 Xrotation Yrotation Zrotation
				JOINT mixamorig:Neck
				{
					OFFSET 0.000000 16.740372 -2.049022
					CHANNELS 6 Xposition Yposition Zposition Xrotation Yrotation Zrotation
					JOINT mixamorig:Head
					{
						OFFSET 0.000000 9.617859 1.684976
						CHANNELS 6 Xposition Yposition Zposition Xrotation Yrotation Zrotation
						JOINT mixamorig:HeadTop_End
						{
							OFFSET 0.000000 22.037384 7.501072
							CHANNELS 6 Xposition Yposition Zposition Xrotation Yrotation Zrotation
							End Site
							{
								OFFSET 0.000000 23.106567 -2.828246
							}
						}
					}
				}
				JOINT mixamorig:RightShoulder
				{
					OFFSET -4.570000 11.014877 -2.160840
					CHANNELS 6 Xposition Yposition Zposition Xrotation Yrotation Zrotation
					JOINT mixamorig:RightArm
					{
						OFFSET -10.592867 -0.524796 -2.232105
						CHANNELS 3 Xrotation Yrotation Zrotation
						JOINT mixamorig:RightForeArm
						{
							OFFSET -27.841497 0.000000 -0.000002
							CHANNELS 3 Xrotation Yrotation Zrotation
							JOINT mixamorig:RightHand
							{
								OFFSET -28.328812 0.000000 -0.000001
								CHANNELS 3 Xrotation Yrotation Zrotation
								JOINT mixamorig:RightHandThumb1
								{
									OFFSET -2.464798 -1.573990 2.681911
									CHANNELS 6 Xposition Yposition Zposition Xrotation Yrotation Zrotation
									JOINT mixamorig:RightHandThumb2
									{
										OFFSET -3.244781 -1.873383 1.873376
										CHANNELS 3 Xrotation Yrotation Zrotation
										JOINT mixamorig:RightHandThumb3
										{
											OFFSET -2.646263 -1.527817 1.527818
											CHANNELS 6 Xposition Yposition Zposition Xrotation Yrotation Zrotation
											JOINT mixamorig:RightHandThumb4
											{
												OFFSET -1.994591 -1.151581 1.151575
												CHANNELS 6 Xposition Yposition Zposition Xrotation Yrotation Zrotation
												End Site
												{
													OFFSET -1.860176 -1.142715 1.365483
												}
											}
										}
									}
								}
								JOINT mixamorig:RightHandIndex1
								{
									OFFSET -9.108299 -0.517883 2.259803
									CHANNELS 6 Xposition Yposition Zposition Xrotation Yrotation Zrotation
									JOINT mixamorig:RightHandIndex2
									{
										OFFSET -3.699997 0.000000 0.000000
										CHANNELS 3 Xrotation Yrotation Zrotation
										JOINT mixamorig:RightHandIndex3
										{
											OFFSET -2.850006 0.000000 0.000000
											CHANNELS 3 Xrotation Yrotation Zrotation
											JOINT mixamorig:RightHandIndex4
											{
												OFFSET -2.772194 0.000000 0.000000
												CHANNELS 3 Xrotation Yrotation Zrotation
												End Site
												{
													OFFSET -2.772202 0.000000 -0.000484
												}
											}
										}
									}
								}
								JOINT mixamorig:RightHandMiddle1
								{
									OFFSET -9.532501 0.000000 -0.000000
									CHANNELS 6 Xposition Yposition Zposition Xrotation Yrotation Zrotation
									JOINT mixamorig:RightHandMiddle2
									{
										OFFSET -3.699997 0.000000 0.000000
										CHANNELS 3 Xrotation Yrotation Zrotation
										JOINT mixamorig:RightHandMiddle3
										{
											OFFSET -2.949997 0.000000 0.000000
											CHANNELS 3 Xrotation Yrotation Zrotation
											JOINT mixamorig:RightHandMiddle4
											{
												OFFSET -2.946594 0.000000 0.000000
												CHANNELS 3 Xrotation Yrotation Zrotation
												End Site
												{
													OFFSET -2.946602 0.000000 -0.000982
												}
											}
										}
									}
								}
								JOINT mixamorig:RightHandRing1
								{
									OFFSET -9.103600 -0.043106 -1.865100
									CHANNELS 6 Xposition Yposition Zposition Xrotation Yrotation Zrotation
									JOINT mixamorig:RightHandRing2
									{
										OFFSET -3.379303 0.000000 0.000000
										CHANNELS 3 Xrotation Yrotation Zrotation
										JOINT mixamorig:RightHandRing3
										{
											OFFSET -2.889694 0.000000 0.000000
											CHANNELS 3 Xrotation Yrotation Zrotation
											JOINT mixamorig:RightHandRing4
											{
												OFFSET -2.638802 0.000000 0.000000
												CHANNELS 3 Xrotation Yrotation Zrotation
												End Site
												{
													OFFSET -2.638802 0.000000 0.004218
												}
											}
										}
									}
								}
								JOINT mixamorig:RightHandPinky1
								{
									OFFSET -8.076698 -0.486725 -3.806299
									CHANNELS 6 Xposition Yposition Zposition Xrotation Yrotation Zrotation
									JOINT mixamorig:RightHandPinky2
									{
										OFFSET -3.600006 0.000000 0.000000
										CHANNELS 3 Xrotation Yrotation Zrotation
										JOINT mixamorig:RightHandPinky3
										{
											OFFSET -2.099998 0.000000 0.000000
											CHANNELS 3 Xrotation Yrotation Zrotation
											JOINT mixamorig:RightHandPinky4
											{
												OFFSET -2.115791 0.000000 0.000000
												CHANNELS 3 Xrotation Yrotation Zrotation
												End Site
												{
													OFFSET -2.115799 0.000000 0.000174
												}
											}
										}
									}
								}
							}
						}
					}
				}
				JOINT mixamorig:LeftShoulder
				{
					OFFSET 4.570400 11.014679 -2.160816
					CHANNELS 6 Xposition Yposition Zposition Xrotation Yrotation Zrotation
					JOINT mixamorig:LeftArm
					{
						OFFSET 10.592373 -0.524597 -2.232116
						CHANNELS 3 Xrotation Yrotation Zrotation
						JOINT mixamorig:LeftForeArm
						{
							OFFSET 27.841488 0.000000 0.000001
							CHANNELS 3 Xrotation Yrotation Zrotation
							JOINT mixamorig:LeftHand
							{
								OFFSET 28.328808 0.000000 -0.000000
								CHANNELS 3 Xrotation Yrotation Zrotation
								JOINT mixamorig:LeftHandThumb1
								{
									OFFSET 2.466103 -1.576202 2.681698
									CHANNELS 6 Xposition Yposition Zposition Xrotation Yrotation Zrotation
									JOINT mixamorig:LeftHandThumb2
									{
										OFFSET 3.243317 -1.872528 1.872530
										CHANNELS 3 Xrotation Yrotation Zrotation
										JOINT mixamorig:LeftHandThumb3
										{
											OFFSET 2.647881 -1.528763 1.528754
											CHANNELS 6 Xposition Yposition Zposition Xrotation Yrotation Zrotation
											JOINT mixamorig:LeftHandThumb4
											{
												OFFSET 1.998924 -1.154083 1.154080
												CHANNELS 6 Xposition Yposition Zposition Xrotation Yrotation Zrotation
												End Site
												{
													OFFSET 1.884041 -1.149155 1.337651
												}
											}
										}
									}
								}
								JOINT mixamorig:LeftHandIndex1
								{
									OFFSET 9.109299 -0.518005 2.259900
									CHANNELS 6 Xposition Yposition Zposition Xrotation Yrotation Zrotation
									JOINT mixamorig:LeftHandIndex2
									{
										OFFSET 3.699997 0.000000 0.000000
										CHANNELS 3 Xrotation Yrotation Zrotation
										JOINT mixamorig:LeftHandIndex3
										{
											OFFSET 2.850006 0.000000 0.000000
											CHANNELS 3 Xrotation Yrotation Zrotation
											JOINT mixamorig:LeftHandIndex4
											{
												OFFSET 2.774895 0.000000 0.000000
												CHANNELS 3 Xrotation Yrotation Zrotation
												End Site
												{
													OFFSET 2.774902 0.000000 -0.000072
												}
											}
										}
									}
								}
								JOINT mixamorig:LeftHandMiddle1
								{
									OFFSET 9.533401 0.000000 0.000000
									CHANNELS 6 Xposition Yposition Zposition Xrotation Yrotation Zrotation
									JOINT mixamorig:LeftHandMiddle2
									{
										OFFSET 3.699997 0.000000 0.000000
										CHANNELS 3 Xrotation Yrotation Zrotation
										JOINT mixamorig:LeftHandMiddle3
										{
											OFFSET 2.949997 0.000000 0.000000
											CHANNELS 3 Xrotation Yrotation Zrotation
											JOINT mixamorig:LeftHandMiddle4
											{
												OFFSET 2.952896 0.000000 0.000000
												CHANNELS 3 Xrotation Yrotation Zrotation
												End Site
												{
													OFFSET 2.952904 0.000000 0.000165
												}
											}
										}
									}
								}
								JOINT mixamorig:LeftHandRing1
								{
									OFFSET 9.104500 -0.042999 -1.865101
									CHANNELS 6 Xposition Yposition Zposition Xrotation Yrotation Zrotation
									JOINT mixamorig:LeftHandRing2
									{
										OFFSET 3.149994 0.000000 0.000000
										CHANNELS 3 Xrotation Yrotation Zrotation
										JOINT mixamorig:LeftHandRing3
										{
											OFFSET 2.950005 0.000000 0.000000
											CHANNELS 3 Xrotation Yrotation Zrotation
											JOINT mixamorig:LeftHandRing4
											{
												OFFSET 2.644302 0.000000 0.000000
												CHANNELS 3 Xrotation Yrotation Zrotation
												End Site
												{
													OFFSET 2.644302 0.000000 0.000083
												}
											}
										}
									}
								}
								JOINT mixamorig:LeftHandPinky1
								{
									OFFSET 8.077805 -0.486893 -3.806302
									CHANNELS 6 Xposition Yposition Zposition Xrotation Yrotation Zrotation
									JOINT mixamorig:LeftHandPinky2
									{
										OFFSET 3.600006 0.000000 0.000000
										CHANNELS 3 Xrotation Yrotation Zrotation
										JOINT mixamorig:LeftHandPinky3
										{
											OFFSET 2.099998 0.000000 0.000000
											CHANNELS 3 Xrotation Yrotation Zrotation
											JOINT mixamorig:LeftHandPinky4
											{
												OFFSET 2.125496 0.000000 0.000000
												CHANNELS 3 Xrotation Yrotation Zrotation
												End Site
												{
													OFFSET 2.125504 0.000000 -0.001254
												}
											}
										}
									}
								}
							}
						}
					}
				}
			}
		}
	}
	JOINT mixamorig:RightUpLeg
	{
		OFFSET -8.207800 -6.751701 -1.599544
		CHANNELS 6 Xposition Yposition Zposition Xrotation Yrotation Zrotation
		JOINT mixamorig:RightLeg
		{
			OFFSET 0.000004 -44.370152 0.345934
			CHANNELS 3 Xrotation Yrotation Zrotation
			JOINT mixamorig:RightFoot
			{
				OFFSET 0.000004 -44.423664 -3.043535
				CHANNELS 3 Xrotation Yrotation Zrotation
				JOINT mixamorig:RightToeBase
				{
					OFFSET 0.000001 -8.728691 10.710592
					CHANNELS 3 Xrotation Yrotation Zrotation
					JOINT mixamorig:RightToe_End
					{
						OFFSET 0.000000 -0.000665 9.278101
						CHANNELS 3 Xrotation Yrotation Zrotation
						End Site
						{
							OFFSET 0.000000 -0.000665 9.278103
						}
					}
				}
			}
		}
	}
	JOINT mixamorig:LeftUpLeg
	{
		OFFSET 8.207800 -6.751701 -1.599544
		CHANNELS 6 Xposition Yposition Zposition Xrotation Yrotation Zrotation
		JOINT mixamorig:LeftLeg
		{
			OFFSET 0.000004 -44.370037 0.346940
			CHANNELS 3 Xrotation Yrotation Zrotation
			JOINT mixamorig:LeftFoot
			{
				OFFSET 0.000004 -44.423611 -3.044388
				CHANNELS 3 Xrotation Yrotation Zrotation
				JOINT mixamorig:LeftToeBase
				{
					OFFSET 0.000001 -8.728690 10.710592
					CHANNELS 3 Xrotation Yrotation Zrotation
					JOINT mixamorig:LeftToe_End
					{
						OFFSET 0.000000 -0.000680 9.278101
						CHANNELS 3 Xrotation Yrotation Zrotation
						End Site
						{
							OFFSET 0.000000 -0.000680 9.278101
						}
					}
				}
			}
		}
	}
}
MOTION
Frames: 4
Frame Time: 0.033333
0.613789 101.679672 1.326078 -0.273914 10.103514 -4.655020 0.000001 10.181540 0.131522 2.617566 -0.776623 3.454844 1.656093 -2.278672 0.845950 -2.923705 -2.285054 0.251909 0.000000 16.740368 -2.049020 -3.367575 -1.151239 -0.983951 0.000000 9.617839 1.684973 -1.349392 -3.841517 0.310224 -0.000000 22.037354 7.501073 0.000000 0.000000 -0.000000 -4.570001 11.014905 -2.160840 -0.855024 5.246484 5.396818 22.093442 -2.728059 73.794757 -0.000005 32.516772 0.000046 25.457356 8.380612 4.049696 -2.464806 -1.573992 2.681908 12.593957 -8.153656 -17.222428 6.064844 -5.313279 -13.324082 -2.646277 -1.527835 1.527818 -13.753621 7.447163 9.069859 -1.994579 -1.151583 1.151559 0.000003 -0.000001 0.000001 -9.108312 -0.517866 2.259802 -0.934005 0.803140 10.773200 0.637302 -3.394055 26.746406 -0.167857 -0.590579 17.433266 -0.000003 0.000004 -0.000000 -9.532506 0.000014 -0.000001 0.839947 -8.113489 23.112402 1.181261 -4.370036 38.023489 0.821918 -3.075360 31.081712 0.000000 0.000001 -0.000000 -9.103598 -0.043107 -1.865103 1.275686 -8.669026 41.005587 0.713378 -2.594917 23.801254 -0.130792 -0.209836 20.215111 -0.000001 -0.000002 -0.000000 -8.076715 -0.486721 -3.806301 2.500282 -10.281929 45.253060 1.612595 -4.332266 49.089676 -0.378846 -2.603571 43.266783 0.000001 0.000003 -0.000003 4.570400 11.014703 -2.160817 8.280033 -20.929230 3.137753 1.625312 4.497743 -76.980241 -0.000002 -36.305116 0.000002 19.884105 -19.957210 5.430765 2.466107 -1.576195 2.681701 28.897612 8.894190 20.768566 -8.694768 18.043850 -12.336312 2.647881 -1.528778 1.528758 7.946580 -11.221915 1.406940 1.998928 -1.154067 1.154079 0.000000 0.000002 0.000001 9.109310 -0.518016 2.259904 0.321242 3.500383 3.987069 0.265653 2.465276 -16.816421 -0.020317 0.178489 -3.850805 0.000001 -0.000000 0.000002 9.533406 -0.000001 0.000006 0.605039 7.624364 -16.487694 0.612724 3.443064 -27.102846 0.271773 1.846656 -15.987007 0.000005 0.000001 -0.000001 9.104520 -0.043006 -1.865100 0.877041 8.007017 -34.399790 0.421991 2.000727 -17.172349 0.298754 1.211769 -12.585001 0.000002 -0.000001 0.000001 8.077821 -0.486891 -3.806298 3.574065 13.525595 -31.383842 0.487172 2.680717 -29.100772 0.074777 1.530301 -6.724086 -0.000006 -0.000004 -0.000001 -8.207798 -6.751710 -1.599542 -8.503709 -12.877587 9.584043 17.348873 1.344867 -1.888858 -7.801648 -4.856921 -4.982083 -2.773171 -0.000002 0.000001 0.000000 -0.000000 0.000000 8.207802 -6.751703 -1.599543 -22.440003 -0.976977 3.348310 64.055222 2.085065 6.919833 1.506004 0.216717 -1.490682 -1.567182 -0.000001 0.000000 -0.000004 0.000000 0.000000 
0.821461 101.966225 6.750390 0.514149 8.480237 -3.647985 -0.000000 10.181572 0.131524 2.220829 -0.260548 2.875818 1.320654 -1.249886 0.284490 -3.217852 -1.239438 -0.283699 -0.000000 16.740376 -2.049019 -2.924323 -1.309465 -0.732111 0.000000 9.617853 1.684974 -0.381137 -4.256675 0.844487 -0.000000 22.037338 7.501073 -0.000000 0.000000 0.000000 -4.570001 11.014880 -2.160841 -0.860299 5.573564 5.481556 16.310949 -2.509366 72.699277 -0.000007 33.397135 0.000017 26.503388 6.496364 3.270067 -2.464788 -1.573977 2.681908 12.230977 -7.969338 -17.507204 5.750135 -5.677895 -13.140387 -2.646275 -1.527810 1.527813 -13.830028 7.698032 9.048495 -1.994595 -1.151584 1.151572 0.000006 -0.000002 0.000005 -9.108300 -0.517880 2.259803 -1.010282 1.145070 10.974201 0.637984 -3.395408 26.761514 -0.167679 -0.592152 17.448350 -0.000001 0.000005 0.000006 -9.532503 0.000002 -0.000001 0.568621 -7.468980 23.643178 1.182049 -4.371136 38.037142 0.822449 -3.076207 31.091513 -0.000001 0.000001 0.000002 -9.103601 -0.043106 -1.865103 1.265177 -8.658422 41.226243 0.716044 -2.599643 23.855479 -0.130052 -0.215368 20.269662 0.000001 0.000001 0.000000 -8.076715 -0.486719 -3.806302 2.438143 -10.190927 45.626022 1.615130 -4.334864 49.125736 -0.377519 -2.607392 43.302658 0.000002 0.000000 0.000005 4.570399 11.014702 -2.160814 8.097217 -21.022445 2.432431 4.324093 7.969251 -78.978324 -0.000002 -32.694015 0.000019 23.867939 -14.990879 -3.994075 2.466094 -1.576199 2.681703 27.832632 9.961667 24.160701 -4.456055 10.903810 -13.932533 2.647893 -1.528752 1.528760 6.998367 -19.987937 2.374265 1.998925 -1.154069 1.154082 0.000002 0.000002 -0.000000 9.109281 -0.518018 2.259898 1.471132 4.060053 0.584774 0.271703 2.485167 -17.022337 -0.019650 0.199338 -4.056419 -0.000001 0.000002 -0.000001 9.533392 -0.000017 -0.000003 0.977772 8.746274 -18.138119 0.611788 3.441152 -27.081497 0.271266 1.845058 -15.970318 0.000004 0.000000 0.000001 9.104488 -0.042998 -1.865101 1.077372 8.345239 -36.267096 0.415426 1.985045 -17.002173 0.293476 1.195645 -12.414069 -0.000001 0.000002 0.000001 8.077806 -0.486890 -3.806297 4.137650 14.274733 -32.286977 0.486402 2.678990 -29.081955 0.074429 1.528433 -6.705297 0.000002 -0.000001 0.000000 -8.207799 -6.751698 -1.599543 -5.805920 -13.024752 8.887300 16.901395 1.242139 -2.257609 -9.430787 -2.545233 -4.504551 -2.707275 0.000002 -0.000000 0.000000 0.000000 0.000000 8.207799 -6.751702 -1.599543 -27.720581 -1.318212 0.377493 57.115746 3.919951 6.675102 -1.254607 0.665892 -3.439981 -0.788938 -0.000004 0.000002 -0.000000 -0.000001 0.000000 
1.075748 101.738258 12.188242 1.395376 6.059981 -2.464779 -0.000000 10.181547 0.131524 1.739393 0.288561 2.158038 1.189308 -0.070742 -0.010986 -3.312095 -0.061149 -0.540019 -0.000000 16.740383 -2.049025 -3.121416 -1.251188 -1.091544 0.000000 9.617846 1.684974 0.167241 -4.499401 0.960837 0.000000 22.037369 7.501074 -0.000000 -0.000000 -0.000000 -4.570001 11.014922 -2.160843 -0.784126 6.381135 3.870013 10.664899 -1.627311 72.742546 -0.000026 33.865693 0.000050 26.095892 5.164825 3.122577 -2.464785 -1.573987 2.681902 12.435331 -7.282863 -17.169504 5.104416 -5.979297 -13.198477 -2.646282 -1.527807 1.527813 -13.898178 7.922589 9.030030 -1.994587 -1.151586 1.151574 0.000003 0.000003 0.000001 -9.108299 -0.517884 2.259799 -1.097830 1.464654 11.275859 0.634550 -3.388615 26.685961 -0.168457 -0.584311 17.372996 -0.000002 0.000002 0.000004 -9.532494 -0.000002 -0.000008 0.265900 -6.785775 24.208950 1.182735 -4.372043 38.048785 0.822801 -3.076792 31.098391 0.000000 0.000000 -0.000003 -9.103593 -0.043107 -1.865108 1.261697 -8.658673 41.584295 0.719793 -2.606254 23.931523 -0.129006 -0.223172 20.346169 0.000001 0.000000 -0.000001 -8.076700 -0.486715 -3.806304 2.336658 -10.050678 46.145629 1.610568 -4.330197 49.060743 -0.379912 -2.600479 43.237997 -0.000001 -0.000001 0.000001 4.570400 11.014688 -2.160819 7.521391 -19.869746 0.240279 7.610231 12.305094 -79.228104 -0.000001 -32.034981 0.000007 32.365596 -11.114780 -15.322980 2.466097 -1.576205 2.681706 26.732995 11.080747 27.786835 4.526210 11.647250 -14.819168 2.647883 -1.528762 1.528746 6.389787 -24.187865 1.896337 1.998911 -1.154068 1.154080 -0.000001 0.000003 -0.000004 9.109297 -0.518007 2.259899 2.784287 4.353356 -1.311121 0.275421 2.497263 -17.147735 -0.019184 0.212022 -4.181511 -0.000001 -0.000001 0.000001 9.533400 0.000014 0.000004 1.247555 9.508305 -18.726181 0.610833 3.439200 -27.059779 0.270791 1.843540 -15.954364 -0.000000 -0.000000 0.000002 9.104486 -0.042989 -1.865101 1.201575 8.534509 -36.867152 0.412891 1.978996 -16.936605 0.291477 1.189418 -12.348214 -0.000000 -0.000000 0.000001 8.077787 -0.486904 -3.806301 4.218344 14.408554 -32.278340 0.487691 2.681846 -29.113306 0.075000 1.531555 -6.736602 0.000002 0.000004 -0.000002 -8.207799 -6.751700 -1.599543 -3.548055 -13.112577 7.500916 17.200807 2.335048 -2.404681 -12.367778 0.148697 -3.984959 -2.411218 -0.000000 0.000001 0.000000 0.000000 0.000000 8.207800 -6.751710 -1.599545 -31.184690 -1.143213 -1.424952 47.252645 4.861292 5.953706 -2.116454 0.814575 -3.599271 -0.131229 -0.000002 0.000002 0.000000 -0.000001 0.000000 
1.357866 101.225288 17.720940 2.162473 3.270123 -1.022645 0.000000 10.181557 0.131521 1.372861 0.707962 1.554665 1.083229 0.807521 -0.532532 -3.396407 0.838324 -1.023559 -0.000000 16.740360 -2.049022 -3.502634 -1.039022 -1.491722 0.000000 9.617865 1.684968 0.265012 -4.087350 0.791329 -0.000001 22.037369 7.501071 -0.000000 0.000000 0.000000 -4.570002 11.014881 -2.160841 -0.665302 7.917496 2.245758 5.789239 0.249646 72.986575 -0.000005 33.995675 0.000028 24.326677 4.748544 3.478612 -2.464805 -1.573982 2.681911 12.781761 -6.238723 -16.634530 4.454121 -6.335046 -13.308148 -2.646266 -1.527804 1.527823 -13.953993 8.107132 9.015264 -1.994587 -1.151571 1.151574 -0.000002 -0.000001 0.000001 -9.108305 -0.517874 2.259801 -1.198450 1.615933 11.863527 0.625414 -3.370367 26.483543 -0.170487 -0.563327 17.171198 0.000000 0.000002 0.000002 -9.532495 0.000002 0.000001 -0.045786 -6.125302 24.866926 1.183199 -4.372624 38.055926 0.822953 -3.077051 31.101328 0.000000 -0.000001 0.000002 -9.103609 -0.043108 -1.865100 1.212994 -8.607786 42.166917 0.721409 -2.609087 23.964323 -0.128555 -0.226568 20.379625 -0.000001 0.000001 0.000001 -8.076724 -0.486721 -3.806301 2.170957 -9.846771 46.696494 1.604850 -4.324295 48.979030 -0.382897 -2.591784 43.156670 0.000001 -0.000003 -0.000001 4.570399 11.014700 -2.160818 6.979801 -16.953686 -2.130163 10.941184 16.423912 -78.862286 -0.000010 -32.026894 -0.000020 42.935088 -8.791959 -24.867737 2.466105 -1.576196 2.681709 25.783694 11.942622 31.121873 5.421151 15.496743 -14.216042 2.647885 -1.528750 1.528760 6.529931 -25.873807 2.600811 1.998921 -1.154068 1.154077 0.000000 0.000004 0.000001 9.109303 -0.518013 2.259900 4.150934 3.608820 1.083049 0.285499 2.529576 -17.483169 -0.017852 0.245981 -4.516599 0.000003 0.000000 -0.000002 9.533402 0.000015 0.000002 0.974664 9.022081 -15.604875 0.606443 3.430161 -26.959032 0.267714 1.833860 -15.852669 0.000002 0.000003 0.000001 9.104501 -0.042988 -1.865102 1.110833 8.385065 -33.997830 0.414960 1.983922 -16.990138 0.293119 1.194500 -12.401995 0.000002 -0.000001 -0.000001 8.077797 -0.486894 -3.806295 3.399080 13.587637 -29.573650 0.496455 2.701222 -29.324536 0.078866 1.552423 -6.947525 -0.000000 0.000002 0.000001 -8.207799 -6.751713 -1.599546 -1.251531 -13.529665 5.526075 17.684050 5.779104 -2.535119 -15.762598 0.381432 -3.260047 -2.392529 0.000002 0.000000 -0.000000 0.000000 0.000000 8.207799 -6.751711 -1.599548 -33.324811 -0.080360 -2.375146 35.553512 5.005911 5.044283 -2.055344 0.617486 -2.527448 -0.230132 0.000008 -0.000000 -0.000000 -0.000000 0.000000 
